<svg xmlns="http://www.w3.org/2000/svg" width="512" height="512" viewBox="0 0 512 512" version="1.1"><path d="M 253 61.677 C 210.959 65.960, 187.609 71.648, 165.032 83.106 C 145.937 92.797, 131.400 105.955, 122.061 122 C 91.021 175.329, 85.087 188.042, 81.410 209.099 C 79.355 220.870, 80.023 233.051, 83.407 245.500 C 86.570 257.138, 87.662 259.954, 88.255 258 C 88.505 257.175, 89.699 251.325, 90.908 245 C 102.393 184.920, 146.261 134.373, 202.836 116.030 C 222.563 109.633, 230.230 108.544, 255.500 108.544 C 280.820 108.544, 287.953 109.575, 307.259 116.024 C 363.080 134.673, 406.631 184.706, 420.394 246 L 422.751 256.500 425.081 249 C 432.241 225.948, 422.806 171.785, 405.920 139 C 399.966 127.441, 387.315 111.979, 375.161 101.410 C 349.795 79.351, 322.214 66.726, 290.022 62.440 C 280.449 61.165, 261.794 60.781, 253 61.677 M 364 163.500 C 365.866 165.425, 367.617 167, 367.892 167 C 368.167 167, 366.866 165.425, 365 163.500 C 363.134 161.575, 361.383 160, 361.108 160 C 360.833 160, 362.134 161.575, 364 163.500 M 188.776 165.733 C 191.128 165.945, 194.728 165.942, 196.776 165.727 C 198.824 165.512, 196.900 165.339, 192.500 165.343 C 188.100 165.346, 186.424 165.522, 188.776 165.733 M 312.728 165.722 C 314.503 165.943, 317.653 165.946, 319.728 165.730 C 321.802 165.513, 320.350 165.333, 316.500 165.328 C 312.650 165.324, 310.952 165.501, 312.728 165.722 M 190.762 170.707 C 192.006 170.946, 193.806 170.937, 194.762 170.687 C 195.718 170.437, 194.700 170.241, 192.500 170.252 C 190.300 170.263, 189.518 170.468, 190.762 170.707 M 223.500 206 C 225.648 208.200, 227.631 210, 227.906 210 C 228.181 210, 226.648 208.200, 224.500 206 C 222.352 203.800, 220.369 202, 220.094 202 C 219.819 202, 221.352 203.800, 223.500 206 M 287.453 206.250 L 283.500 210.500 287.750 206.547 C 291.702 202.871, 292.460 202, 291.703 202 C 291.540 202, 289.627 203.912, 287.453 206.250 M 363.500 210 C 365.648 212.200, 367.631 214, 367.906 214 C 368.181 214, 366.648 212.200, 364.500 210 C 362.352 207.800, 360.369 206, 360.094 206 C 359.819 206, 361.352 207.800, 363.500 210 M 175.762 233.707 C 177.006 233.946, 178.806 233.937, 179.762 233.687 C 180.718 233.437, 179.700 233.241, 177.500 233.252 C 175.300 233.263, 174.518 233.468, 175.762 233.707 M 207.762 233.707 C 209.006 233.946, 210.806 233.937, 211.762 233.687 C 212.718 233.437, 211.700 233.241, 209.500 233.252 C 207.300 233.263, 206.518 233.468, 207.762 233.707 M 324.250 233.689 C 325.212 233.941, 326.788 233.941, 327.750 233.689 C 328.712 233.438, 327.925 233.232, 326 233.232 C 324.075 233.232, 323.288 233.438, 324.250 233.689 M 356.250 233.689 C 357.212 233.941, 358.788 233.941, 359.750 233.689 C 360.712 233.438, 359.925 233.232, 358 233.232 C 356.075 233.232, 355.288 233.438, 356.250 233.689 M 201.250 238.689 C 202.213 238.941, 203.787 238.941, 204.750 238.689 C 205.713 238.438, 204.925 238.232, 203 238.232 C 201.075 238.232, 200.287 238.438, 201.250 238.689 M 350.250 238.689 C 351.212 238.941, 352.788 238.941, 353.750 238.689 C 354.712 238.438, 353.925 238.232, 352 238.232 C 350.075 238.232, 349.288 238.438, 350.250 238.689 M 240.328 245.500 C 240.333 249.350, 240.513 250.802, 240.730 248.728 C 240.946 246.653, 240.943 243.503, 240.722 241.728 C 240.501 239.952, 240.324 241.650, 240.328 245.500 M 235.272 246 C 235.272 248.475, 235.467 249.488, 235.706 248.250 C 235.944 247.012, 235.944 244.988, 235.706 243.750 C 235.467 242.512, 235.272 243.525, 235.272 246 M 97.382 281.500 C 97.384 288.100, 97.546 290.670, 97.741 287.211 C 97.937 283.752, 97.936 278.352, 97.738 275.211 C 97.540 272.070, 97.380 274.900, 97.382 281.500 M 414.378 287 C 414.378 293.325, 414.541 295.913, 414.739 292.750 C 414.937 289.587, 414.937 284.413, 414.739 281.250 C 414.541 278.087, 414.378 280.675, 414.378 287 M 144 285.500 C 145.866 287.425, 147.617 289, 147.892 289 C 148.167 289, 146.866 287.425, 145 285.500 C 143.134 283.575, 141.383 282, 141.108 282 C 140.833 282, 142.134 283.575, 144 285.500 M 366.946 285.750 L 363.500 289.500 367.250 286.054 C 369.313 284.158, 371 282.471, 371 282.304 C 371 281.540, 370.154 282.260, 366.946 285.750 M 87.232 295 C 87.232 296.925, 87.438 297.712, 87.689 296.750 C 87.941 295.788, 87.941 294.212, 87.689 293.250 C 87.438 292.288, 87.232 293.075, 87.232 295 M 424.232 300 C 424.232 301.925, 424.438 302.712, 424.689 301.750 C 424.941 300.788, 424.941 299.212, 424.689 298.250 C 424.438 297.288, 424.232 298.075, 424.232 300 M 257.750 371.740 C 261.188 371.936, 266.813 371.936, 270.250 371.740 C 273.688 371.545, 270.875 371.385, 264 371.385 C 257.125 371.385, 254.313 371.545, 257.750 371.740 M 260.768 376.725 C 262.565 376.947, 265.265 376.943, 266.768 376.715 C 268.271 376.486, 266.800 376.304, 263.500 376.310 C 260.200 376.315, 258.971 376.502, 260.768 376.725 M 372.437 396.250 L 369.500 399.500 372.750 396.563 C 375.779 393.825, 376.460 393, 375.687 393 C 375.515 393, 374.052 394.462, 372.437 396.250 M 364.437 404.250 L 361.500 407.500 364.750 404.563 C 367.779 401.825, 368.460 401, 367.687 401 C 367.515 401, 366.052 402.462, 364.437 404.250 M 253.250 445.716 C 254.762 445.945, 257.238 445.945, 258.750 445.716 C 260.262 445.487, 259.025 445.300, 256 445.300 C 252.975 445.300, 251.738 445.487, 253.250 445.716" stroke="none" fill="#b77748" fill-rule="evenodd"/><path d="M 169 239.693 C 162.992 240.334, 141.839 243.966, 137.826 245.047 C 134.148 246.037, 134 246.242, 134 250.357 C 134 252.711, 134.717 257.081, 135.593 260.068 C 144.416 290.140, 178.397 305.003, 206.500 291.082 C 219.973 284.409, 230.318 271.690, 233.441 257.959 C 234.756 252.178, 235.589 242.020, 234.750 241.992 C 234.613 241.987, 229.550 241.321, 223.500 240.511 C 217.450 239.702, 207.315 239.030, 200.977 239.020 L 189.455 239 189.455 243.107 C 189.455 246.205, 188.880 247.678, 187.116 249.107 C 181.460 253.687, 173.362 249.589, 174.183 242.561 C 174.432 240.423, 174.179 239.064, 173.549 239.160 C 172.972 239.248, 170.925 239.488, 169 239.693 M 318 239.676 C 310.085 240.482, 294.926 243.046, 286.250 245.046 C 275.915 247.429, 276.196 247.045, 278.105 256.201 C 283.408 281.630, 308.097 299.128, 334.126 295.906 C 358.819 292.850, 378 271.876, 378 247.932 L 378 241.227 374.750 240.617 C 372.962 240.281, 363.821 239.718, 354.435 239.364 L 337.369 238.721 337.801 242.422 C 338.637 249.586, 330.607 253.742, 324.884 249.107 C 323.120 247.678, 322.545 246.205, 322.545 243.107 C 322.545 240.848, 322.310 239.072, 322.023 239.160 C 321.735 239.248, 319.925 239.480, 318 239.676" stroke="none" fill="#ffffff" fill-rule="evenodd"/><path d="M 257 50.619 C 211.609 54.741, 185.252 60.835, 161.543 72.688 C 142.120 82.399, 125.183 97.141, 115.180 113.043 C 106.860 126.270, 88.164 159.560, 83.473 169.500 C 70.069 197.905, 66.598 221.511, 72.343 245.203 C 74.810 255.377, 79.461 268.649, 82.412 273.939 C 83.708 276.262, 83.564 276.516, 79.364 279.298 C 70.572 285.122, 63.787 296.359, 61.697 308.557 C 59.395 321.998, 64.414 336.321, 74.946 346.367 C 81.632 352.745, 88.498 356.278, 97.614 358.031 C 103.218 359.109, 103.872 359.511, 105.458 362.853 C 111.757 376.132, 124.043 393.221, 136.360 405.838 C 163.548 433.688, 197.370 450.072, 238 455.076 C 249.788 456.528, 274.010 455.720, 287 453.442 C 337.885 444.517, 379.857 414.999, 404.324 370.929 L 407.972 364.358 414.236 363.193 C 441.442 358.134, 457.541 330.230, 447.987 304.694 C 444.471 295.297, 436.829 286.650, 426.604 280.500 C 425.101 279.596, 425.273 278.720, 428.397 271.346 C 436.973 251.107, 437.457 248.678, 437.437 226 C 437.419 206.816, 437.213 204.523, 434.220 190.289 C 432.461 181.923, 428.996 168.921, 426.519 161.395 C 417.719 134.653, 408.679 119.651, 390.184 101.096 C 364.012 74.839, 333.231 58.846, 296.770 52.558 C 287.782 51.008, 264.966 49.896, 257 50.619 M 253 61.677 C 210.959 65.960, 187.609 71.648, 165.032 83.106 C 145.937 92.797, 131.400 105.955, 122.061 122 C 91.021 175.329, 85.087 188.042, 81.410 209.099 C 79.355 220.870, 80.023 233.051, 83.407 245.500 C 86.570 257.138, 87.662 259.954, 88.255 258 C 88.505 257.175, 89.699 251.325, 90.908 245 C 102.393 184.920, 146.261 134.373, 202.836 116.030 C 222.563 109.633, 230.230 108.544, 255.500 108.544 C 280.820 108.544, 287.953 109.575, 307.259 116.024 C 363.080 134.673, 406.631 184.706, 420.394 246 L 422.751 256.500 425.081 249 C 432.241 225.948, 422.806 171.785, 405.920 139 C 399.966 127.441, 387.315 111.979, 375.161 101.410 C 349.795 79.351, 322.214 66.726, 290.022 62.440 C 280.449 61.165, 261.794 60.781, 253 61.677 M 236 118.654 C 219.185 120.846, 198.127 127.632, 182.288 135.963 C 128.015 164.510, 94.186 225.257, 97.342 288.500 C 100.191 345.598, 127.969 394.020, 174.486 422.980 C 218.242 450.220, 278.499 452.839, 327.494 429.630 C 392.501 398.836, 426.674 325.563, 411.037 250.500 C 400.137 198.176, 365.862 153.653, 319.923 132.144 C 297.903 121.833, 285.020 118.953, 259 118.521 C 248.275 118.343, 237.925 118.403, 236 118.654 M 175 167.427 C 159.683 170.832, 150.683 175.832, 155.033 178.520 C 155.601 178.872, 159.314 177.810, 163.283 176.162 C 167.252 174.514, 173.425 172.611, 177 171.934 C 185.858 170.255, 201.926 170.473, 210.960 172.394 C 218.461 173.989, 220.808 173.547, 219.732 170.743 C 218.213 166.785, 187.975 164.544, 175 167.427 M 297.196 167.440 C 288.050 169.177, 287 169.586, 287 171.410 C 287 173.859, 288.403 174.018, 296.456 172.477 C 313.071 169.298, 335.736 171.071, 349.741 176.646 C 356.045 179.155, 358 179.098, 358 176.405 C 358 174.698, 351.611 171.767, 341.539 168.854 C 332.298 166.181, 307.916 165.404, 297.196 167.440 M 154.434 198.333 C 147.120 202.478, 143.079 207.695, 145.854 209.410 C 146.794 209.991, 159 201.276, 159 200.024 C 159 198.130, 156.456 197.187, 154.434 198.333 M 214.250 199.718 C 211.944 200.545, 212.966 202.526, 218.280 207.529 C 221.185 210.263, 225.076 214.702, 226.927 217.393 C 230.146 222.073, 235.289 234.723, 234.495 236.008 C 234.286 236.346, 230.152 235.986, 225.308 235.209 C 213.599 233.331, 176.565 233.128, 164 234.873 C 158.775 235.598, 150.288 237.049, 145.140 238.096 C 132.131 240.742, 132.931 241.055, 134.584 233.969 C 135.358 230.651, 136.893 226.169, 137.996 224.008 C 140.561 218.981, 140.546 217, 137.945 217 C 135.347 217, 131.544 224.939, 129.483 234.665 C 125.496 253.482, 130.829 270.806, 144.993 285.050 C 158.624 298.757, 175.903 304.293, 194.566 300.931 C 204.484 299.145, 216.273 292.801, 223.872 285.162 C 234.776 274.202, 239.966 261.576, 239.988 245.960 C 240.010 230.576, 235.042 218.038, 224.628 207.189 C 218.054 200.341, 216.212 199.015, 214.250 199.718 M 357.389 201.430 C 357.051 202.310, 359.309 205.291, 363.258 209.180 C 369.580 215.404, 375.887 226.143, 377.473 233.380 C 378.049 236.010, 377.903 236.207, 375.802 235.642 C 374.536 235.302, 366.413 234.479, 357.750 233.812 C 334.750 232.041, 307.836 234.393, 282.750 240.368 L 277 241.737 277 239.050 C 277 237.572, 277.709 233.975, 278.576 231.057 C 279.635 227.490, 279.821 225.421, 279.143 224.743 C 274.064 219.664, 269.645 243.652, 272.987 258.156 C 278.749 283.159, 302.470 302.079, 327.934 301.983 C 353.462 301.886, 377.208 282.377, 382.566 257.099 C 384.521 247.876, 384.339 240.683, 381.929 231.987 C 379.031 221.530, 374.579 213.722, 367.304 206.338 C 361.083 200.025, 358.431 198.712, 357.389 201.430 M 287.157 207.415 C 283.016 211.727, 281.197 214.349, 281.606 215.415 C 281.940 216.287, 282.699 217, 283.293 217 C 285.234 217, 297.182 203.916, 296.607 202.419 C 295.596 199.783, 293.340 200.976, 287.157 207.415 M 188.647 241.213 C 189.345 245.516, 187.736 248.770, 184.255 250.093 C 178.841 252.152, 172.770 246.450, 174.517 240.946 C 175.205 238.779, 175.108 238.755, 168.358 239.458 C 160.549 240.272, 140.992 243.575, 136.500 244.839 C 133.646 245.642, 133.506 245.930, 133.632 250.761 C 134.017 265.630, 144.901 282.350, 159.500 290.500 C 191.144 308.167, 230.340 288.021, 235.215 251.586 C 235.845 246.878, 236.044 242.711, 235.658 242.324 C 234.472 241.138, 217.260 239.107, 202.289 238.385 L 188.077 237.700 188.647 241.213 M 337.070 240.684 C 339.271 246.472, 333.510 252.285, 327.745 250.093 C 324.427 248.832, 322.682 245.618, 323.243 241.800 L 323.679 238.829 316.589 239.508 C 308.880 240.245, 285.721 244.341, 279.848 246.005 C 276.264 247.020, 276.205 247.120, 276.685 251.270 C 280.284 282.398, 311.265 303.455, 341.234 295.145 C 362.742 289.181, 379 268.037, 379 246.030 C 379 241.523, 378.795 241.116, 376.250 240.581 C 371.739 239.633, 351.038 238.018, 343.275 238.009 L 336.050 238 337.070 240.684 M 81.126 291.871 C 74.234 298.947, 71.714 305.879, 72.174 316.500 C 72.711 328.895, 78.820 338.806, 89.180 344.092 C 93.477 346.284, 99 348.187, 99 347.476 C 99 347.265, 97.661 342.962, 96.025 337.913 C 92.306 326.441, 89.321 311.618, 88.002 298.076 C 87.443 292.343, 86.786 287.453, 86.542 287.209 C 86.298 286.965, 83.861 289.063, 81.126 291.871 M 261.667 287.667 C 260.461 288.872, 260.946 289.775, 265.939 295.626 C 272.127 302.878, 276 310.662, 276 315.848 C 276 319.058, 275.408 320.320, 272.923 322.411 C 266.650 327.690, 256.869 324.558, 245.172 313.524 C 241.271 309.844, 237.612 307.122, 237.040 307.475 C 234.711 308.914, 236.319 312.080, 242.092 317.424 C 256.796 331.038, 269.872 333.604, 277.907 324.453 C 280.451 321.555, 281 320.073, 281 316.100 C 281 310.012, 276.009 299.696, 269.461 292.250 C 265.084 287.272, 263.180 286.153, 261.667 287.667 M 424.531 297.735 C 422.063 320.796, 420.800 327.357, 415.855 342.794 C 414.201 347.957, 413.037 352.370, 413.268 352.601 C 414.087 353.420, 422.086 350.037, 426.483 347.012 C 431.501 343.559, 436.363 337.056, 438.540 330.885 C 440.415 325.573, 440.415 314.427, 438.540 309.115 C 436.630 303.700, 431.739 296.663, 428.072 294.051 L 425.148 291.969 424.531 297.735 M 236.526 373.533 C 227.900 374.926, 212.512 378.566, 210.816 379.613 C 209.705 380.300, 209.784 382.749, 210.941 383.463 C 211.458 383.783, 215.395 383.144, 219.691 382.043 C 248.102 374.760, 281.326 374.803, 303.839 382.153 C 310.377 384.287, 312.901 383.791, 311.680 380.609 C 311.077 379.037, 305.635 377.178, 293.480 374.392 C 283.533 372.111, 248.591 371.585, 236.526 373.533" stroke="none" fill="#080707" fill-rule="evenodd"/><path d="M 240.500 118.623 C 170.323 126.129, 116.116 176.176, 100.840 247.565 C 98.755 257.309, 98.504 261.059, 98.536 282 C 98.568 302.570, 98.855 306.809, 100.837 316 C 113.376 374.144, 152.339 419.132, 205.533 436.885 C 232.063 445.740, 262.975 447.360, 291.796 441.407 C 336.070 432.262, 375.383 402.648, 395.882 363 C 402.776 349.665, 408.079 335.026, 411.223 320.648 C 413.171 311.738, 413.441 307.573, 413.441 286.500 C 413.441 265.267, 413.179 261.290, 411.164 252 C 406.025 228.303, 395.249 203.308, 382.278 185 C 373.793 173.022, 355.234 154.429, 343.500 146.150 C 333.110 138.819, 314.051 129.212, 302.565 125.516 C 288.289 120.922, 275.598 118.859, 259.500 118.515 C 251.250 118.339, 242.700 118.387, 240.500 118.623 M 180.477 165.988 C 170.235 167.493, 154.597 173.002, 153.664 175.433 C 152.826 177.616, 154.641 179.311, 157.144 178.682 C 158.440 178.357, 163.550 176.664, 168.500 174.921 C 179.346 171.101, 193.927 169.977, 206 172.030 C 217.355 173.961, 219.500 173.877, 219.500 171.504 C 219.500 169.057, 215.461 167.588, 204.573 166.073 C 196.061 164.890, 188.140 164.861, 180.477 165.988 M 303.630 165.994 C 299.852 166.469, 294.565 167.385, 291.880 168.029 C 287.721 169.027, 287 169.554, 287 171.600 C 287 174.458, 287.350 174.483, 299.500 172.486 C 316.386 169.712, 335.358 171.279, 348.492 176.534 C 355.496 179.336, 357.566 179.573, 358.300 177.659 C 359.146 175.455, 357.823 174.343, 351.102 171.616 C 338.568 166.530, 318.375 164.138, 303.630 165.994 M 151.448 199.819 C 145.896 203.881, 143.845 206.431, 144.583 208.355 C 145.553 210.883, 147.352 210.355, 152.623 206 C 155.285 203.800, 157.840 202, 158.301 202 C 159.808 202, 158.541 197.528, 156.948 197.225 C 156.095 197.063, 153.620 198.230, 151.448 199.819 M 213.667 199.667 C 212.089 201.244, 213.401 203.382, 219.848 209.744 C 226.747 216.550, 231.907 225.296, 233.508 232.897 C 234.216 236.257, 234.190 236.288, 231.182 235.686 C 208.539 231.158, 164.906 232.694, 138.528 238.948 C 136.344 239.466, 134.348 239.681, 134.094 239.427 C 133.342 238.676, 136.114 228.953, 138.624 223.535 C 140.527 219.427, 140.713 218.285, 139.651 217.223 C 137.580 215.151, 135.342 216.778, 133.103 221.983 C 122.164 247.411, 129.647 276.051, 151.212 291.287 C 161.102 298.275, 169.634 301.226, 181.500 301.762 C 193.137 302.287, 201.050 300.633, 210.500 295.699 C 218.943 291.292, 230.825 279.236, 234.843 271 C 245.806 248.531, 241.333 222.999, 223.324 205.250 C 217.332 199.344, 215.214 198.120, 213.667 199.667 M 357.531 200.612 C 356.021 202.122, 356.427 202.789, 362.926 209.491 C 367.786 214.504, 371.039 219.005, 373.476 224.091 C 378.170 233.886, 378.138 235.400, 373.250 234.622 C 371.188 234.294, 360.275 233.741, 349 233.394 C 325.807 232.678, 309.092 234.127, 289.286 238.569 C 282.974 239.985, 277.574 240.907, 277.286 240.619 C 276.997 240.331, 277.547 236.890, 278.507 232.973 C 279.735 227.962, 279.938 225.538, 279.193 224.793 C 273.931 219.531, 269.205 241.930, 272.397 257 C 274.833 268.504, 279.156 276.328, 287.914 285.086 C 299.522 296.694, 311.879 301.965, 327.540 301.988 C 369.570 302.050, 396.482 258.409, 377.929 220.276 C 374.876 214.002, 367.166 204.678, 361.972 200.980 C 359.374 199.130, 359.040 199.102, 357.531 200.612 M 286.727 207.123 C 280.881 213.266, 279.773 216.500, 283.514 216.500 C 285.873 216.500, 297 205.081, 297 202.660 C 297 199.056, 292.573 200.980, 286.727 207.123 M 190.750 238.723 C 192.537 238.945, 195.463 238.945, 197.250 238.723 C 199.037 238.502, 197.575 238.320, 194 238.320 C 190.425 238.320, 188.963 238.502, 190.750 238.723 M 339.750 238.723 C 341.538 238.945, 344.462 238.945, 346.250 238.723 C 348.038 238.502, 346.575 238.320, 343 238.320 C 339.425 238.320, 337.962 238.502, 339.750 238.723 M 378.286 245.500 C 378.294 248.250, 378.488 249.256, 378.718 247.736 C 378.947 246.216, 378.941 243.966, 378.704 242.736 C 378.467 241.506, 378.279 242.750, 378.286 245.500 M 219.437 282.250 L 216.500 285.500 219.750 282.563 C 221.537 280.948, 223 279.485, 223 279.313 C 223 278.540, 222.175 279.221, 219.437 282.250 M 81.427 292.137 C 74.770 299.182, 72.493 305.159, 72.525 315.500 C 72.554 324.982, 74.684 330.532, 80.870 337.244 C 84.703 341.401, 94.155 347, 97.341 347 C 98.577 347, 98.515 346.229, 96.948 342.106 C 92.703 330.934, 88.637 311.153, 87.189 294.634 L 86.500 286.767 81.427 292.137 M 261.397 288.407 C 261.096 289.193, 263.101 292.598, 265.948 296.130 C 277.613 310.606, 278.960 320.878, 269.601 323.967 C 263.048 326.129, 253.260 321.507, 243.779 311.773 C 239.747 307.634, 238.468 306.846, 237.142 307.682 C 236.239 308.252, 235.500 309.234, 235.500 309.864 C 235.500 311.863, 246.635 322.365, 252.549 325.945 C 266.335 334.290, 281.385 329.067, 281.385 315.937 C 281.385 304.762, 264.203 281.096, 261.397 288.407 M 424.195 304.750 C 422.695 319.336, 420.779 328.579, 416.522 341.750 C 412.720 353.515, 412.933 353.831, 421.721 349.452 C 427.847 346.399, 434.380 339.587, 437.329 333.176 C 440.370 326.567, 440.370 313.433, 437.329 306.824 C 435.337 302.493, 427.608 293, 426.074 293 C 425.705 293, 424.860 298.288, 424.195 304.750 M 245 372.032 C 234.497 373.312, 217.428 376.794, 213.390 378.482 C 210.106 379.853, 208.963 382.241, 210.990 383.494 C 211.534 383.830, 217.046 382.982, 223.240 381.610 C 252.671 375.087, 280.750 375.619, 306.804 383.191 C 310.379 384.230, 311.253 384.208, 311.962 383.062 C 314.109 379.588, 309.685 377.473, 292.768 373.886 C 281.984 371.600, 256.625 370.616, 245 372.032" stroke="none" fill="#edc4a6" fill-rule="evenodd"/></svg>